<?xml version="1.0" standalone="no"?><!DOCTYPE svg PUBLIC "-//W3C//DTD SVG 1.1//EN" "http://www.w3.org/Graphics/SVG/1.1/DTD/svg11.dtd"><svg t="1511330020601" class="icon" style="" viewBox="0 0 1024 1024" version="1.1" xmlns="http://www.w3.org/2000/svg" p-id="1858" xmlns:xlink="http://www.w3.org/1999/xlink" width="200" height="200"><defs><style type="text/css"></style></defs><path d="M512 0C230.4 0 0 230.4 0 512s230.4 512 512 512 512-230.4 512-512S793.6 0 512 0z m0 960C265.6 960 64 758.4 64 512S265.6 64 512 64s448 201.6 448 448-201.6 448-448 448z" p-id="1859"></path><path d="M508.8 707.2c-12.8 0-22.4 3.2-32 12.8-9.6 9.6-12.8 19.2-12.8 32s3.2 22.4 12.8 32c9.6 9.6 19.2 12.8 32 12.8s22.4-3.2 32-12.8c9.6-9.6 12.8-19.2 12.8-32s-3.2-22.4-12.8-32c-9.6-6.4-19.2-12.8-32-12.8zM518.4 240c-54.4 0-99.2 16-128 48-32 32-44.8 64-44.8 128h60.8c0-32 9.6-64 25.6-86.4 19.2-25.6 48-35.2 86.4-35.2 32 0 57.6 9.6 76.8 28.8 16 16 25.6 41.6 25.6 70.4 0 22.4-6.4 41.6-22.4 60.8-3.2 6.4-12.8 16-25.6 28.8-41.6 38.4-64 67.2-76.8 89.6-9.6 19.2-12.8 41.6-12.8 67.2h64v-3.2c0-19.2 3.2-38.4 12.8-57.6 6.4-12.8 19.2-28.8 35.2-41.6 35.2-28.8 54.4-51.2 60.8-57.6 19.2-25.6 28.8-54.4 28.8-89.6 0-44.8-16-83.2-41.6-108.8-35.2-28.8-73.6-41.6-124.8-41.6z" p-id="1860"></path></svg>